:SAMPLES-PER-SECOND 30
:FULLY-SPECIFIED
:DEGREES
25
root  34.85498203 36.55189154 -14.45294328 9.215511322 -5.026833534 3.294367313
lowerback  -8.002812386 -0.7568460107 -0.6226139069
upperback  -3.942820072 -0.5103471279 -3.21329999
thorax  0.3881449997 -0.09982851148 -3.004628658
lowerneck  -7.151370049 -13.36270046 -10.29539967
upperneck  12.93949986 -18.20100212 10.32900047
head  7.021860123 -8.502969742 3.18114996
lclavicle  0 -4.497500157e-015 -2.743230041e-014
lhumerus  -48.04719925 29.39889908 64.25229645
lradius  0.006001632661 -6.507048965e-006 30.33668518
lwrist  4.824992743e-007 -3.790274832e-007 -27.75720024
lhand  -4.419251534e-031 -36.96220016 -10.70400047
lfingers  90 7.125020027 -90
lthumb  94.85142675 -25.53707256 101.1382397
rclavicle  0 -4.497500157e-015 -2.743230041e-014
rhumerus  -56.19319916 -35.35419846 -53.2127037
rradius  -5.16745672e-007 2.214343908e-008 43.55059814
rwrist  -2.867388866e-005 0.1128110886 -152.8580017
rhand  -3.534725302e-031 -2.586210012 -7.559510231
rfingers  -90 -7.125020027 -90
rthumb  -86.52009333 -8.094882938 -66.64269016
rfemur  -11.53721046 15.78831196 12.72810173
rtibia  -0.3737517297 -1.054786682 18.92110825
rfoot  1.19051218 -21.75374031 -35.31419373
rtoes  4.075155514 19.59709229 -101.9922835
lfemur  -6.598871231 -16.19812584 -20.93563843
ltibia  3.953128576 -0.3856489062 12.23016834
lfoot  0.6585133672 -23.36895752 36.89033508
ltoes  -8.738665583 -18.06061251 -116.3726366
26
root  34.85430019 36.55285272 -14.45212477 9.242830276 -5.013056278 3.304881334
lowerback  -7.981778622 -0.758026123 -0.6287171245
upperback  -3.928910017 -0.5080518723 -3.213350058
thorax  0.3905789852 -0.1010829881 -3.006279945
lowerneck  -7.152910233 -13.39770031 -10.34039974
upperneck  12.89039993 -18.2453022 10.34749985
head  7.017089844 -8.527279854 3.187649965
lclavicle  0 -4.497500157e-015 -2.743230041e-014
lhumerus  -47.98260117 29.37490082 64.32389832
lradius  0.006001632661 -6.507048965e-006 30.35159874
lwrist  4.824992743e-007 -3.790274832e-007 -27.64559937
lhand  -0 -36.95000076 -10.71609974
lfingers  90 7.125020027 -90
lthumb  94.84828971 -25.54945248 101.1262778
rclavicle  0 -4.497500157e-015 -2.743230041e-014
rhumerus  -56.10419464 -34.63069916 -53.8996048
rradius  -5.16745672e-007 2.214343908e-008 44.80350113
rwrist  -2.867388866e-005 0.1128110886 -154.0800018
rhand  -1.767346803e-031 -2.574810028 -7.73443985
rfingers  -90 -7.125020027 -90
rthumb  -86.58805403 -7.934849772 -66.64129338
rfemur  -11.5853138 15.78515339 12.72281837
rtibia  -0.3893698752 -1.037243843 18.96157646
rfoot  1.178499699 -21.70872116 -35.3180809
rtoes  4.052459762 19.60162071 -101.924624
lfemur  -6.570456505 -16.18544769 -20.96829033
ltibia  4.003905773 -0.3734679818 12.14365292
lfoot  0.6544261575 -23.3510704 36.87395096
ltoes  -8.717515768 -18.07056693 -116.3044346
27
root  34.85400583 36.5533213 -14.45143392 9.253263474 -5.008708954 3.306944847
lowerback  -7.978889942 -0.7590767741 -0.631803453
upperback  -3.922460079 -0.5070848465 -3.220880032
thorax  0.3953469992 -0.1024957299 -3.009500027
lowerneck  -7.145720005 -13.41930008 -10.38259983
upperneck  12.83279991 -18.27070236 10.36170006
head  7.005410194 -8.543439865 3.195749998
lclavicle  0 -4.497500157e-015 -2.743230041e-014
lhumerus  -47.97800064 29.45960045 64.28209686
lradius  0.006001632661 -6.507048965e-006 30.35209846
lwrist  4.824992743e-007 -3.790274832e-007 -27.70439911
lhand  -4.418578408e-031 -36.95059967 -10.63599968
lfingers  90 7.125020027 -90
lthumb  94.83143233 -25.4707081 101.1195582
rclavicle  0 -4.497500157e-015 -2.743230041e-014
rhumerus  -56.12549973 -34.01160049 -54.43610001
rradius  -5.16745672e-007 2.214343908e-008 46.04190063
rwrist  -2.867388866e-005 0.1128110886 -155.3990021
rhand  -1.767255011e-031 -2.507760048 -7.639910221
rfingers  -90 -7.125020027 -90
rthumb  -86.5378806 -8.025251906 -66.57076452
rfemur  -11.62638092 15.78801823 12.74586201
rtibia  -0.4097678959 -0.9978672266 19.02023506
rfoot  1.170122147 -21.63812637 -35.30192184
rtoes  4.050399341 19.60203051 -101.9184823
lfemur  -6.532313824 -16.22542953 -20.97595215
ltibia  4.045345783 -0.3875626922 12.06839848
lfoot  0.6525910497 -23.26762962 36.91149902
ltoes  -8.712032533 -18.07314272 -116.2867587
28
root  34.85361835 36.55309602 -14.45046973 9.245738029 -5.002632141 3.305763245
lowerback  -7.966849804 -0.7599659562 -0.6206086874
upperback  -3.935029984 -0.5086089969 -3.231309891
thorax  0.3754340112 -0.1040854901 -3.026520014
lowerneck  -7.108739853 -13.4435997 -10.44859982
upperneck  12.78110027 -18.30649948 10.42959976
head  6.999380112 -8.561579704 3.224129915
lclavicle  0 -4.497500157e-015 -2.743230041e-014
lhumerus  -47.98740005 29.4734993 64.25759888
lradius  0.006001632661 -6.507048965e-006 30.35840034
lwrist  4.824992743e-007 -3.790274832e-007 -27.68289948
lhand  -4.420691827e-031 -36.98699951 -10.59319973
lfingers  90 7.125020027 -90
lthumb  94.83928472 -25.42742386 101.1545138
rclavicle  0 -4.497500157e-015 -2.743230041e-014
rhumerus  -56.13149643 -33.35480118 -54.96180344
rradius  -5.16745672e-007 2.214343908e-008 47.30699921
rwrist  -2.867388866e-005 0.1128110886 -156.5650024
rhand  -1.767014456e-031 -2.322849989 -7.412879944
rfingers  -90 -7.125020027 -90
rthumb  -86.41200974 -8.243015807 -66.37767088
rfemur  -11.61205292 15.79284668 12.74120045
rtibia  -0.407115519 -0.9995677471 19.01269722
rfoot  1.172590852 -21.64599419 -35.29542923
rtoes  4.076469224 19.59682935 -101.9962003
lfemur  -6.514025688 -16.21069145 -20.99240685
ltibia  4.048992157 -0.3865389526 12.05948448
lfoot  0.6425686479 -23.27433205 36.88234329
ltoes  -8.685216531 -18.08571043 -116.2003489
